<svg width="28" height="28" viewBox="0 0 28 28" fill="none" xmlns="http://www.w3.org/2000/svg">
<mask id="mask0_1628_4671" style="mask-type:alpha" maskUnits="userSpaceOnUse" x="1" y="0" width="26" height="28">
<path d="M15.2209 27.2952C14.4654 27.7313 13.5346 27.7313 12.779 27.2952L3.09654 21.7049C2.34103 21.2688 1.87561 20.4627 1.87561 19.5903V8.40985C1.87561 7.53747 2.34103 6.73135 3.09654 6.29515L12.779 0.704955C13.5346 0.268759 14.4654 0.268759 15.2209 0.704955L24.9034 6.29515C25.6589 6.73135 26.1243 7.53747 26.1243 8.40987V19.5903C26.1243 20.4627 25.6589 21.2688 24.9034 21.7049L15.2209 27.2952Z" fill="#D9D9D9"/>
</mask>
<g mask="url(#mask0_1628_4671)">
<path d="M26.1279 21.0001L14 28.0001L1.87207 21.0001L8.30356 17.2879C11.8287 15.2533 16.1713 15.2533 19.6963 17.2879L26.1279 21.0001Z" fill="#6F7CEE"/>
<path d="M14 0V7.41994C14 11.4916 16.1725 15.2539 19.699 17.2894L26.1279 21V7L14 0Z" fill="#FF96B6"/>
<path d="M14 0V7.41993C14 11.4916 11.8275 15.2539 8.30105 17.2893L1.87207 21V7L14 0Z" fill="#BC8CEC"/>
</g>
</svg>
